<svg version="1" xmlns="http://www.w3.org/2000/svg" width="346.667" height="346.667" viewBox="0 0 260.000000 260.000000"><path d="M118.6 31.8c-.3.3-2 .6-3.8.8-4.1.3-16.1 3.6-21 5.7-2.1.9-3.8 1.3-3.8 1 0-.3-.6-.1-1.2.5-.7.5-4 2.4-7.3 4.2-3.3 1.8-6.9 4.1-8.1 5.1-1.1 1-2.3 1.9-2.7 1.9-.3 0-1.7 1-3 2.2-1.2 1.3-4.3 4.2-6.8 6.5-2.4 2.3-5.4 5.3-6.6 6.8C50.7 70.7 42 84.3 42 85.6c0 .7-.5 1.4-1 1.6-.6.2-1.2 1.2-1.5 2.3-.2 1.1-1.6 5.3-3 9.4-1.3 4.1-2.7 8.6-2.9 10-.2 1.4-.5 2.6-.6 2.6-.6 0-1.1 9.3-1.1 19 0 12.8.4 18.5 1.2 18.5.3 0 .6.6.6 1.2.1 2.7 3.6 14.4 5.4 18.2 1 2.2 1.9 4.6 1.9 5.3 0 .7.5 1.3 1 1.3.6 0 1 .5 1 1.1 0 .6 1.4 3.1 3 5.6 1.7 2.4 3 4.7 3 5 0 1.6 19 20.6 22.9 22.9 1.7 1 3.1 2.2 3.1 2.6 0 .4.5.8 1.2.8.6 0 2.6 1.1 4.3 2.5 1.8 1.3 3.5 2.1 3.9 1.8.3-.4.6 0 .6.7s.3 1 .6.7c.4-.4 2.1.1 3.8 1 5.8 3 6.6 3.3 8.1 3.3.8 0 1.5.5 1.5 1.1 0 .5.4.8.9.5.4-.3 2.3-.1 4.2.5 1.9.5 5 1.2 6.9 1.5 1.9.3 4.9.8 6.5 1.1 5.5.9 30 .4 30-.7 0-.1 1.1-.3 2.5-.5 5.9-.8 22-6.4 22-7.7 0-.5.3-.7.8-.5.4.2 2.1-.4 3.7-1.4 1.7-1 4.5-2.6 6.3-3.5 1.7-.9 3.2-2 3.2-2.5s.4-.9 1-.9c.5 0 2.2-1 3.7-2.3 2.8-2.3 16-15.5 17.8-17.9 2.2-2.8 9.5-14.8 9.5-15.6 0-.4.5-1.3 1.2-2 .6-.6 1.3-1.7 1.4-2.4.1-.7 1.2-4 2.3-7.2 1.2-3.3 2.1-6.8 2.1-7.8 0-1.1.4-1.7.8-1.4.4.2.9-1 1-2.7.5-6.5 1-11.2 1.2-11.2.6 0 .8-18 .2-19-.3-.5-.7-2.6-.9-4.5-.2-3.4-.7-6.2-1.7-10.5-1.1-4.8-6.2-18.1-7.1-18.7-.6-.5-.7-.8 0-.8s.7-.3 0-.8c-.5-.4-2.1-2.7-3.4-5.2-1.4-2.5-2.7-4.7-3-5-.4-.3-2.5-3.1-4.9-6.3-2.3-3.1-4.7-5.7-5.2-5.7-.6 0-1-.7-1-1.5s-.3-1.5-.7-1.5c-.5 0-2.4-1.5-4.4-3.3-2-1.7-4.8-4.1-6.4-5.2-1.5-1.1-3.2-2.5-3.9-3-2.8-2.4-11.7-7.1-21.1-11-3.8-1.6-16.2-4.7-19.5-5-1.4 0-3-.4-3.5-.7-1.3-.7-22.2-.7-22.9 0z"/></svg>